<svg width="16" height="17" viewBox="0 0 16 17" fill="none" xmlns="http://www.w3.org/2000/svg">
<path d="M15.0784 16.2541C15.5636 16.2541 15.9571 15.8607 15.9571 15.3754V1.21195C15.9571 0.72658 15.5637 0.333252 15.0784 0.333252H0.915034C0.429659 0.333252 0.0363312 0.72658 0.0363312 1.21195V15.3754C0.0363312 15.8606 0.429598 16.2541 0.915034 16.2541H15.0784Z" fill="#3C5A99"/>
<path d="M11.0214 16.2541V10.0887H13.0908L13.4007 7.68587H11.0214V6.15185C11.0214 5.45619 11.2146 4.98212 12.2121 4.98212L13.4845 4.98156V2.8325C13.2644 2.80321 12.5092 2.73779 11.6305 2.73779C9.79602 2.73779 8.54011 3.85755 8.54011 5.91389V7.68587H6.46536V10.0887H8.54011V16.2541H11.0214Z" fill="white"/>
</svg>
