<svg width="16" height="17" viewBox="0 0 16 17" fill="none" xmlns="http://www.w3.org/2000/svg">
<mask id="mask0" mask-type="alpha" maskUnits="userSpaceOnUse" x="0" y="0" width="16" height="17">
<path fill-rule="evenodd" clip-rule="evenodd" d="M15.814 6.84233H8.18605V9.93324H12.5767C12.1674 11.8969 10.4558 13.0241 8.18605 13.0241C5.50698 13.0241 3.34884 10.9151 3.34884 8.29688C3.34884 5.67869 5.50698 3.5696 8.18605 3.5696C9.33953 3.5696 10.3814 3.9696 11.2 4.62415L13.5814 2.29688C12.1302 1.06051 10.2698 0.296875 8.18605 0.296875C3.64651 0.296875 0 3.86051 0 8.29688C0 12.7332 3.64651 16.2969 8.18605 16.2969C12.2791 16.2969 16 13.3878 16 8.29688C16 7.82415 15.9256 7.31506 15.814 6.84233Z" fill="white"/>
</mask>
<g mask="url(#mask0)">
<path d="M-0.744186 13.0241V3.56958L5.5814 8.29685L-0.744186 13.0241Z" fill="#FBBC05"/>
</g>
<mask id="mask1" mask-type="alpha" maskUnits="userSpaceOnUse" x="0" y="0" width="16" height="17">
<path fill-rule="evenodd" clip-rule="evenodd" d="M15.814 6.84233H8.18605V9.93324H12.5767C12.1674 11.8969 10.4558 13.0241 8.18605 13.0241C5.50698 13.0241 3.34884 10.9151 3.34884 8.29688C3.34884 5.67869 5.50698 3.5696 8.18605 3.5696C9.33953 3.5696 10.3814 3.9696 11.2 4.62415L13.5814 2.29688C12.1302 1.06051 10.2698 0.296875 8.18605 0.296875C3.64651 0.296875 0 3.86051 0 8.29688C0 12.7332 3.64651 16.2969 8.18605 16.2969C12.2791 16.2969 16 13.3878 16 8.29688C16 7.82415 15.9256 7.31506 15.814 6.84233Z" fill="white"/>
</mask>
<g mask="url(#mask1)">
<path d="M-0.744186 3.56958L5.5814 8.29685L8.18605 6.07867L17.1163 4.66049V-0.43042H-0.744186V3.56958Z" fill="#EA4335"/>
</g>
<mask id="mask2" mask-type="alpha" maskUnits="userSpaceOnUse" x="0" y="0" width="16" height="17">
<path fill-rule="evenodd" clip-rule="evenodd" d="M15.814 6.84233H8.18605V9.93324H12.5767C12.1674 11.8969 10.4558 13.0241 8.18605 13.0241C5.50698 13.0241 3.34884 10.9151 3.34884 8.29688C3.34884 5.67869 5.50698 3.5696 8.18605 3.5696C9.33953 3.5696 10.3814 3.9696 11.2 4.62415L13.5814 2.29688C12.1302 1.06051 10.2698 0.296875 8.18605 0.296875C3.64651 0.296875 0 3.86051 0 8.29688C0 12.7332 3.64651 16.2969 8.18605 16.2969C12.2791 16.2969 16 13.3878 16 8.29688C16 7.82415 15.9256 7.31506 15.814 6.84233Z" fill="white"/>
</mask>
<g mask="url(#mask2)">
<path d="M-0.744186 13.0241L10.4186 4.66049L13.3581 5.02413L17.1163 -0.43042V17.0241H-0.744186V13.0241Z" fill="#34A853"/>
</g>
<mask id="mask3" mask-type="alpha" maskUnits="userSpaceOnUse" x="0" y="0" width="16" height="17">
<path fill-rule="evenodd" clip-rule="evenodd" d="M15.814 6.84233H8.18605V9.93324H12.5767C12.1674 11.8969 10.4558 13.0241 8.18605 13.0241C5.50698 13.0241 3.34884 10.9151 3.34884 8.29688C3.34884 5.67869 5.50698 3.5696 8.18605 3.5696C9.33953 3.5696 10.3814 3.9696 11.2 4.62415L13.5814 2.29688C12.1302 1.06051 10.2698 0.296875 8.18605 0.296875C3.64651 0.296875 0 3.86051 0 8.29688C0 12.7332 3.64651 16.2969 8.18605 16.2969C12.2791 16.2969 16 13.3878 16 8.29688C16 7.82415 15.9256 7.31506 15.814 6.84233Z" fill="white"/>
</mask>
<g mask="url(#mask3)">
<path d="M17.1163 17.0241L5.58139 8.29685L4.09302 7.20594L17.1163 3.56958V17.0241Z" fill="#4285F4"/>
</g>
</svg>
